<svg width="96" height="96" viewBox="0 0 480 480" fill="none" xmlns="http://www.w3.org/2000/svg">
<path d="M87.2734 260H52.8984L0.945312 208.242V52.5781L52.8984 0.820312H87.2734V260ZM100.945 52.5781V0.820312H192.938L244.695 52.5781V104.727H158.367V52.5781H100.945ZM100.945 260V208.242H158.367V170.352H244.695V208.242L192.938 260H100.945Z" fill="#EDEDED"/>
<path d="M278.789 417.242H352.812V469H244.219L192.461 417.242V261.578L244.219 209.82H278.789V417.242ZM324.492 325.25H443.047V469H366.484V376.617H324.492V325.25ZM292.461 261.578V209.82H397.734L443.047 261.578V287.555H356.719V261.578H292.461Z" fill="#EDEDED"/>
</svg>
